# xmcd
#
# Track frame offsets:
#	150
#	9924
#	21878
#	32808
#	42033
#	51751
#	61177
#	68439
#	79239
#	92008
#	104478
#	113848
#	123399
#	132999
#	145301
#	154970
#	165096
#	176323
#	185924
#	197000
#	206103
#	216079
#	224670
#	242186
#	251005
#	261810
#	272970
#	281880
#	291704
#	301957
#	313054
#	322389
#	333897
#
# Disc length: 4598 seconds
#
# Revision: 1
# Processed by: cddbd v1.5.1PL2 Copyright (c) Steve Scherf et al.
# Submitted via: audiograbber 1.83.01
#
DISCID=fe11f421
DTITLE=Chet Atkins - Strummin' In The Space Age
DYEAR=1900
DGENRE=
TTITLE0=Johnson Rag
TTITLE1=Lullaby of The Leaves
TTITLE2=Walk, Don't Run
TTITLE3=Yankee Doodle Dixie
TTITLE4=Vilia
TTITLE5=Heartaches
TTITLE6=Adelita
TTITLE7=Shadow Waltz
TTITLE8=Liza
TTITLE9=Malaguena
TTITLE10=El Cumbachero
TTITLE11=Portugese Washerwoman
TTITLE12=Hot Mockin' Bird
TTITLE13=Bonita
TTITLE14=Boo Boo Stick Beat
TTITLE15=Teensville
TTITLE16=Django's Castle
TTITLE17=Jessie
TTITLE18=Siesta
TTITLE19=Slinkey
TTITLE20=Backwoods
TTITLE21=I Know That You Know
TTITLE22=Theme From A Dream
TTITLE23=Teen Scene
TTITLE24=Blackjack
TTITLE25=Hidden Charm
TTITLE26=A Little Evil
TTITLE27=Salty Dog Rag
TTITLE28=Trambone
TTITLE29=Little Feet
TTITLE30=Give The World A Smile
TTITLE31=I Ain't Gonna Work Tomorrow
TTITLE32=Windy And Warm
EXTD=
EXTT0=
EXTT1=
EXTT2=
EXTT3=
EXTT4=
EXTT5=
EXTT6=
EXTT7=
EXTT8=
EXTT9=
EXTT10=
EXTT11=
EXTT12=
EXTT13=
EXTT14=
EXTT15=
EXTT16=
EXTT17=
EXTT18=
EXTT19=
EXTT20=
EXTT21=
EXTT22=
EXTT23=
EXTT24=
EXTT25=
EXTT26=
EXTT27=
EXTT28=
EXTT29=
EXTT30=
EXTT31=
EXTT32=
PLAYORDER=
